<svg xmlns="http://www.w3.org/2000/svg" width="306" height="306" viewBox="0 0 306 306"><title>boat</title><path d="M18,193.5H154a.43.43,0,0,0,.19,0s0,0,0,0a.71.71,0,0,0,.2-.2s0,0,0,0,0-.06,0-.1a.32.32,0,0,0,0-.09V57a.5.5,0,0,0-.31-.46.48.48,0,0,0-.54.11l-34,34-34,34-68,68a.47.47,0,0,0-.11.54A.5.5,0,0,0,18,193.5Z"/><path d="M237.08,199.46H92.92a.5.5,0,0,0-.47.31.51.51,0,0,0,.11.54l48.09,48.09a.5.5,0,0,0,.35.14h48.08a.5.5,0,0,0,.47-.31v0l47.89-47.89a.51.51,0,0,0,.11-.54A.5.5,0,0,0,237.08,199.46Z"/><path d="M195.52,192.61a.49.49,0,0,0,.27.28.58.58,0,0,0,.19,0,.63.63,0,0,0,.19,0L285,156.08a.49.49,0,0,0,.3-.46.51.51,0,0,0-.3-.46l-125.65-52a.51.51,0,0,0-.66.66Z"/></svg>