<svg xmlns="http://www.w3.org/2000/svg" width="306" height="306" viewBox="0 0 306 306"><title>cake</title><path d="M56.92,225.58h96.16a.48.48,0,0,0,.31-.12l95.63.12h0a.5.5,0,0,0,.5-.5l.13-96.16a.51.51,0,0,0-.86-.36l-47.25,47.13V129.11a.45.45,0,0,0,0-.34s0-.06-.07-.1l-.07-.08-.07-.06a.87.87,0,0,0-.1-.08.53.53,0,0,0-.35,0H177.54V81a.5.5,0,0,0-.5-.5H129a.5.5,0,0,0-.5.5v47.5H104.92l-.12,0h0a.47.47,0,0,0-.29.26.45.45,0,0,0,0,.34v46.64L57.27,128.56a.51.51,0,0,0-.54-.11.5.5,0,0,0-.31.47v96.16A.5.5,0,0,0,56.92,225.58Z"/></svg>