<svg xmlns="http://www.w3.org/2000/svg" width="306" height="306" viewBox="0 0 306 306"><title>camel</title><path d="M115.81,252.46a.43.43,0,0,0,.19,0,.47.47,0,0,0,.35-.15L184,184.71l67.73,67.73a.52.52,0,0,0,.35.14.58.58,0,0,0,.19,0,.5.5,0,0,0,.31-.47V155.92a.48.48,0,0,0-.45-.49l-47.64-47.65a.48.48,0,0,0-.26-.28.77.77,0,0,0-.15,0h-.16a.77.77,0,0,0-.15,0,.48.48,0,0,0-.26.28L190,121.29,156.35,87.65a.48.48,0,0,0-.7,0L122.5,120.79V54a.5.5,0,0,0-.5-.5H54a.5.5,0,0,0-.46.31.47.47,0,0,0,.11.54L81.5,82.21V150a.47.47,0,0,0,.15.35l33.85,33.86V252A.5.5,0,0,0,115.81,252.46Z"/></svg>