<svg xmlns="http://www.w3.org/2000/svg" width="306" height="306" viewBox="0 0 306 306"><title>cat</title><path d="M303.19,84.54a.47.47,0,0,0-.54.11L269,118.29,235.35,84.65a.47.47,0,0,0-.54-.11.5.5,0,0,0-.31.46v67.5H99l-.09,0h-.1s0,0,0,0a.71.71,0,0,0-.2.2s0,0,0,0,0,.06,0,.1a.32.32,0,0,0,0,.09v66.75L51.35,172.6a.5.5,0,0,0-.35-.14H2.92a.5.5,0,0,0-.47.31.51.51,0,0,0,.11.54L50.65,221.4a.5.5,0,0,0,.35.14H99.08a.74.74,0,0,0,.14,0H303a.5.5,0,0,0,.46-.31.47.47,0,0,0-.11-.54L269.71,187l33.64-33.65a.1.1,0,0,0,0,0l0-.06a.48.48,0,0,0,.07-.24V85A.5.5,0,0,0,303.19,84.54Z"/></svg>