<svg xmlns="http://www.w3.org/2000/svg" width="306" height="306" viewBox="0 0 306 306"><title>dog</title><path d="M302.68,210.42l-26-62.82a.48.48,0,0,0-.27-.27L232,128.93a.45.45,0,0,0-.39,0v0a.5.5,0,0,0-.5-.5H87.54V81a.5.5,0,0,0-.85-.36L53,114.29,19.35,80.65a.47.47,0,0,0-.54-.11.5.5,0,0,0-.31.46v67.79L4.65,162.65a.48.48,0,0,0,0,.7l34,34a.48.48,0,0,0,.7,0L73,163.71l61.73,61.73a.52.52,0,0,0,.35.14.58.58,0,0,0,.19,0,.5.5,0,0,0,.31-.47V197.5h67.21l27.94,27.94a.52.52,0,0,0,.35.14.58.58,0,0,0,.19,0,.5.5,0,0,0,.31-.47V130.23l25.76,62.17a.48.48,0,0,0,.27.27L302,211.07a.43.43,0,0,0,.19,0,.54.54,0,0,0,.36-.14A.51.51,0,0,0,302.68,210.42Z"/></svg>