<svg xmlns="http://www.w3.org/2000/svg" width="306" height="306" viewBox="0 0 306 306"><title>elephant</title><path d="M51.65,237.35a.47.47,0,0,0,.35.15.43.43,0,0,0,.19,0,.5.5,0,0,0,.31-.46V208.21l18.62-18.63h47.34V237a.5.5,0,0,0,.5.5H167a.5.5,0,0,0,.5-.5V189.28a.29.29,0,0,0,0-.09l23.65-23.65h47.56a.58.58,0,0,0,.19,0,.73.73,0,0,0,.52-.31l47.92-47.92a.5.5,0,0,0,.14-.35V68.92a.5.5,0,0,0-.31-.47.51.51,0,0,0-.54.11L238.6,116.65a.5.5,0,0,0-.08.12L215,140.27,167.55,92.8a.52.52,0,0,0-.28-.35.65.65,0,0,0-.2,0H167a.65.65,0,0,0-.2,0,.52.52,0,0,0-.28.35l-18.61,18.62h-96a.48.48,0,0,0-.5.5v57L17.65,202.65a.48.48,0,0,0,0,.7Z"/></svg>