<svg xmlns="http://www.w3.org/2000/svg" width="306" height="306" viewBox="0 0 306 306"><title>house</title><path d="M61,167.5H84.5V235a.32.32,0,0,0,0,.09s0,.07,0,.1,0,0,0,0a.71.71,0,0,0,.2.2s0,0,0,0a.43.43,0,0,0,.19,0H221a.43.43,0,0,0,.19,0s0,0,0,0a.71.71,0,0,0,.2-.2s0,0,0,0,0-.06,0-.1a.32.32,0,0,0,0-.09V167.54h23.58a.5.5,0,0,0,.47-.31.51.51,0,0,0-.11-.54l-47.9-47.9V71a.5.5,0,0,0-.5-.5H149a.5.5,0,0,0-.5.5v46.79l-19.11-19.1a.48.48,0,0,0-.7,0l-68,68a.47.47,0,0,0-.11.54A.5.5,0,0,0,61,167.5Z"/></svg>