<svg xmlns="http://www.w3.org/2000/svg" width="306" height="306" viewBox="0 0 306 306"><title>kangaroo</title><path d="M30,276.5H97.78a.74.74,0,0,0,.14,0h96.16a.48.48,0,0,0,.46-.31.49.49,0,0,0-.1-.54L180.73,262l33.62-33.63a.48.48,0,0,0,0-.7L180.71,194l46.79-46.79V187a.5.5,0,0,0,.31.46.43.43,0,0,0,.19,0,.47.47,0,0,0,.35-.15l34-34a.48.48,0,0,0,0-.7l-33.77-33.77V79.54H276a.5.5,0,0,0,.36-.85L228.31,30.6a.5.5,0,0,0-.85.36V49.83l-95.59,95.6a.49.49,0,0,0-.45.49V241.5H64a.47.47,0,0,0-.35.15l-34,34a.47.47,0,0,0-.11.54A.5.5,0,0,0,30,276.5Z"/></svg>