<svg xmlns="http://www.w3.org/2000/svg" width="306" height="306" viewBox="0 0 306 306"><title>scorpion</title><path d="M249.54,168v-47.8h0a.45.45,0,0,0,0-.39.49.49,0,0,0-.26-.32L201.35,71.6a.5.5,0,0,0-.35-.14H105a.5.5,0,0,0-.5.5V120a.49.49,0,0,0,.31.46.41.41,0,0,0,.19,0,.5.5,0,0,0,.35-.14l13.9-13.9h67.54l13.71,13.71V167.5H181.21l-27.64-27.64a.49.49,0,0,0-.3-.4.43.43,0,0,0-.25,0h0a.43.43,0,0,0-.25,0,.49.49,0,0,0-.3.4L56.56,235.73a.49.49,0,0,0-.1.54.48.48,0,0,0,.46.31H249.08a.48.48,0,0,0,.42-.73V168.24A.45.45,0,0,0,249.54,168Z"/></svg>