<svg xmlns="http://www.w3.org/2000/svg" width="306" height="306" viewBox="0 0 306 306"><title>teacup</title><path d="M46.8,190.51l33.85,33.84a.48.48,0,0,0,.7,0l33.07-33.06v32.79s0,.06,0,.1,0,.06,0,.09,0,0,0,0a.71.71,0,0,0,.2.2l0,0a.58.58,0,0,0,.19,0h96.16a.49.49,0,0,0,.48-.39l47.84-47.84a.5.5,0,0,0,.14-.35V127.92a.5.5,0,0,0-.31-.47.51.51,0,0,0-.54.11l-47.11,47.11V127.92s0-.06,0-.1,0-.06,0-.09,0,0,0,0a.71.71,0,0,0-.2-.2l0,0s-.05,0-.07,0L163.35,79.6a.5.5,0,0,0-.7,0l-47.84,47.84a.49.49,0,0,0-.39.48v12.79L81.35,107.65a.48.48,0,0,0-.7,0L46.8,141.49a.5.5,0,0,0-.34.47V190A.5.5,0,0,0,46.8,190.51Zm67.62-1H95.54v-47h18.88Z"/></svg>