<svg xmlns="http://www.w3.org/2000/svg" width="306" height="306" viewBox="0 0 306 306"><title>wolf</title><path d="M259.66,177.6a.48.48,0,0,0-.27-.27L215,158.93a.48.48,0,0,0-.53.1l-87.66-36.32h-.06L109.84,82a.52.52,0,0,0-.92,0l-.09.22L65.62,64.31l0-.13a.5.5,0,0,0,0-.38.48.48,0,0,0-.27-.27L21,45.13a.49.49,0,0,0-.54.1.51.51,0,0,0-.11.55l26,62.67-.15.37a.49.49,0,0,0,.27.65l.26.11L72.09,171a1.13,1.13,0,0,1,0,.8l36.8,88.84a.49.49,0,0,0,.46.31.5.5,0,0,0,.46-.31l26-62.82h0l25.35,10.51h.06L178.16,249a.51.51,0,0,0,.46.3.49.49,0,0,0,.46-.3l36.14-87.24,25.11,60.62a.48.48,0,0,0,.27.27L285,241.07a.41.41,0,0,0,.19,0,.5.5,0,0,0,.35-.14.51.51,0,0,0,.11-.55Z"/></svg>