<svg xmlns="http://www.w3.org/2000/svg" width="306" height="306" viewBox="0 0 306 306"><title>chicken</title><path d="M79.46,192.17v27.66L59.65,239.65a.47.47,0,0,0-.11.54.5.5,0,0,0,.46.31H196a.5.5,0,0,0,.46-.31.47.47,0,0,0-.11-.54L173.71,217l67.49-67.49a.5.5,0,0,0,.34-.47V101.5H261a.5.5,0,0,0,.46-.31.47.47,0,0,0-.11-.54l-34-34a.48.48,0,0,0-.7,0L192.8,100.49a.48.48,0,0,0-.31.31l-47.7,47.7H105.25L80.31,123.56a.25.25,0,0,0-.09,0L46.35,89.65a.47.47,0,0,0-.54-.11.5.5,0,0,0-.31.46v68a.47.47,0,0,0,.15.35Z"/></svg>