<svg xmlns="http://www.w3.org/2000/svg" width="306" height="306" viewBox="0 0 306 306"><title>elsa</title><path d="M177.54,252.79V205a.49.49,0,0,0-.31-.46h0l-12.7-12.7V56.21L182,38.71,214.69,71.4a.5.5,0,0,0,.35.14.41.41,0,0,0,.19,0,.49.49,0,0,0,.31-.46V23a.5.5,0,0,0-.5-.5H167.17L148.35,3.65a.48.48,0,0,0-.7,0l-34,34a.48.48,0,0,0,0,.7L147.29,72,95.65,123.65a.48.48,0,0,0,0,.7l12.85,12.86V272.75L80.56,300.69a.51.51,0,0,0-.11.54.5.5,0,0,0,.47.31H225.08a.5.5,0,0,0,.47-.31.51.51,0,0,0-.11-.54Z"/></svg>