<svg xmlns="http://www.w3.org/2000/svg" width="306" height="306" viewBox="0 0 306 306"><title>football</title><path d="M252.35,108.65s0,0-.08-.05-.05,0-.08-.06h-.38s-.05,0-.08.06-.06,0-.08.05l-34,34a.48.48,0,0,0,0,.7l33.14,33.15H184.36a.54.54,0,0,0-.28-.08h-39.5V81.54H192a.5.5,0,0,0,.5-.5V33a.5.5,0,0,0-.5-.5H144a.5.5,0,0,0-.5.5V80.83l-95.9,95.9a.51.51,0,0,0-.11.54.5.5,0,0,0,.47.31h39.5v27.3L19.65,272.65a.47.47,0,0,0-.11.54.5.5,0,0,0,.46.31H87.67s0,0,.06,0a.41.41,0,0,0,.19,0,.52.52,0,0,0,.35-.14l.08-.08h0l61.85-61.85H218a.47.47,0,0,0,.35-.15l34-34,34-34a.48.48,0,0,0,0-.7Z"/></svg>