<svg xmlns="http://www.w3.org/2000/svg" width="306" height="306" viewBox="0 0 306 306"><title>goatee</title><path d="M193.56,59.81a.49.49,0,0,0-.48-.39H96.92a.5.5,0,0,0-.47.31.51.51,0,0,0,.11.54L112.5,76.21V94.79l-47.9,47.9a.5.5,0,0,0,.36.85H112.5v.25L78.65,177.65a.1.1,0,0,0,0,0,.21.21,0,0,1,0,.06.48.48,0,0,0-.07.24v68a.5.5,0,0,0,.31.46.43.43,0,0,0,.19,0,.47.47,0,0,0,.35-.15l34-34,33.15-33.14V246a.5.5,0,0,0,.31.46.43.43,0,0,0,.19,0,.47.47,0,0,0,.35-.15l68-68a.48.48,0,0,0,0-.7L193.73,156l47.67-47.67a.5.5,0,0,0,0-.7Z"/></svg>