<svg xmlns="http://www.w3.org/2000/svg" width="306" height="306" viewBox="0 0 306 306"><title>horse</title><path d="M268.66,147.6a.48.48,0,0,0-.27-.27L224,128.93a.45.45,0,0,0-.39,0v0a.48.48,0,0,0-.5-.5h-96L79.35,80.65h0l-.08-.09a.51.51,0,0,0-.54-.11s0,0-.06,0H11a.5.5,0,0,0-.46.31.47.47,0,0,0,.11.54l7.85,7.86V157a.5.5,0,0,0,.31.46.43.43,0,0,0,.19,0,.47.47,0,0,0,.35-.15L53,123.71l25.42,25.41v28a.45.45,0,0,0,0,.2V225a.5.5,0,0,0,.5.5H127a.5.5,0,0,0,.5-.5V177.58h46.92V225a.5.5,0,0,0,.5.5h47.93a.43.43,0,0,0,.19,0,.58.58,0,0,0,.19,0,.5.5,0,0,0,.31-.47V130.23l25.76,62.17a.48.48,0,0,0,.27.27L294,211.07a.43.43,0,0,0,.19,0,.54.54,0,0,0,.36-.14.51.51,0,0,0,.1-.55Z"/></svg>