<svg xmlns="http://www.w3.org/2000/svg" width="306" height="306" viewBox="0 0 306 306"><title>leia</title><path d="M263,86.5H195a.47.47,0,0,0-.35.15L161,120.29,112.71,72,146,38.71l33.65,33.64a.47.47,0,0,0,.35.15.43.43,0,0,0,.19,0,.5.5,0,0,0,.31-.46V4a.5.5,0,0,0-.31-.46.47.47,0,0,0-.54.11L146,37.29,112.35,3.65a.48.48,0,0,0-.7,0L78,37.29,44.35,3.65a.47.47,0,0,0-.54-.11A.5.5,0,0,0,43.5,4V72a.5.5,0,0,0,.31.46.43.43,0,0,0,.19,0,.47.47,0,0,0,.35-.15L78,38.71l33.5,33.5V207.79L85.65,233.65a.48.48,0,0,0,0,.7L105.27,254,57.56,301.69a.51.51,0,0,0-.11.54.5.5,0,0,0,.47.31h96.16a.5.5,0,0,0,.47-.31.48.48,0,0,0-.05-.42V166.21l25.85-25.86a.48.48,0,0,0,0-.7L162.21,121.5H229a.47.47,0,0,0,.35-.15l34-34a.47.47,0,0,0,.11-.54A.5.5,0,0,0,263,86.5Z"/></svg>