<svg xmlns="http://www.w3.org/2000/svg" width="306" height="306" viewBox="0 0 306 306"><title>person</title><path d="M134.53,81.6a.48.48,0,0,0,.46.31.43.43,0,0,0,.19,0l44.42-18.4a.49.49,0,0,0,.27-.65L161.47,18.4a.49.49,0,0,0-.65-.27L116.4,36.53a.49.49,0,0,0-.27.65Z"/><path d="M145.27,180,114.6,210.65a.5.5,0,0,0-.14.35v47.83L83.6,289.69a.5.5,0,0,0,.36.85H132a.5.5,0,0,0,.5-.5V242.21l30-30V231a.5.5,0,0,0,.5.5h67.79l23.9,23.9a.5.5,0,0,0,.35.14.41.41,0,0,0,.19,0,.49.49,0,0,0,.31-.46V207a.5.5,0,0,0-.5-.5H207.17L163.71,163l78.73-78.73a.51.51,0,0,0,.11-.54.5.5,0,0,0-.47-.31H49.92a.5.5,0,0,0-.47.31.51.51,0,0,0,.11.54Z"/></svg>