<svg enable-background="new 0 0 306 306" viewBox="0 0 306 306" xmlns="http://www.w3.org/2000/svg"><path d="m197.5 264.2c0 .2-.1.3-.3.4-.1 0-.1 0-.2 0-.1 0-.1 0-.2 0-.1-.1-.2-.2-.3-.4l-33.5-33.5-33.6 33.6h-.1c-.1 0-.2.1-.2.1h-68.1c-.2 0-.4-.1-.5-.3s0-.4.1-.5l34-34 33.6-33.6-27.5-27.5h-39.7c-.2 0-.4-.1-.5-.3s0-.4.1-.5l67.1-67.1h-30.7c-.3 0-.5-.2-.5-.5v-48l-9.8-9.8c-.1-.1-.2-.4-.1-.5.1-.2.3-.3.5-.3h68c.3 0 .5.2.5.5v68c0 .2-.1.4-.3.5-.1 0-.1 0-.2 0s-.3-.1-.4-.2l-9.8-9.8h-14.6l66.9 66.9c.3 0 .5.2.4.5v46.8l47.1-47.1c.1-.1.4-.2.5-.1.2.1.3.3.3.5v48c0 .1 0 .3-.1.4z"/></svg>