<svg xmlns="http://www.w3.org/2000/svg" width="306" height="306" viewBox="0 0 306 306"><title>shark</title><path d="M269.27,53.46a.49.49,0,0,0-.54.1L206.79,115.5H158.21L124.35,81.65a.48.48,0,0,0-.7,0L89.79,115.5H71a.48.48,0,0,0-.24.07l-.06,0a.1.1,0,0,0,0,0l-34,34a.48.48,0,0,0,0,.7l34,34a.1.1,0,0,0,0,0l.06,0a.48.48,0,0,0,.24.07H89.79l67.86,67.85a.47.47,0,0,0,.35.15.43.43,0,0,0,.19,0,.5.5,0,0,0,.31-.46V184.5H207a.47.47,0,0,0,.35-.15l33.77-33.77h28a.5.5,0,0,0,.5-.5V53.92A.48.48,0,0,0,269.27,53.46Z"/></svg>