<svg xmlns="http://www.w3.org/2000/svg" width="306" height="306" viewBox="0 0 306 306"><title>snail</title><path d="M225.73,173l19.62-19.63s0-.06.05-.08,0-.05.06-.08,0,0,0-.05a1,1,0,0,0,0-.28s0,0,0-.05,0-.05-.06-.08,0-.06-.05-.08l-68-68a.48.48,0,0,0-.7,0l-68,68s0,.06-.05.08,0,.05-.06.08,0,0,0,.05a1,1,0,0,0,0,.28s0,0,0,.05,0,.05.06.08,0,.06.05.08l19.1,19.11H81.54V125a.5.5,0,0,0-.5-.5H33a.5.5,0,0,0-.5.5v47.8h0a.48.48,0,0,0,0,.39.51.51,0,0,0,.25.32L80.65,221.4a.5.5,0,0,0,.35.14H273.08a.5.5,0,0,0,.47-.31.51.51,0,0,0-.11-.54Z"/></svg>