<svg xmlns="http://www.w3.org/2000/svg" width="306" height="306" viewBox="0 0 306 306"><title>swan</title><path d="M245.27,145.52l-47-47H217a.5.5,0,0,0,.46-.31.47.47,0,0,0-.11-.54l-34-34a.48.48,0,0,0-.7,0L148.8,97.49a.48.48,0,0,0-.24.82l47.9,47.9v26.54L101.27,77.56a.51.51,0,0,0-.54-.11.5.5,0,0,0-.31.47V173.5H61a.5.5,0,0,0-.46.31.47.47,0,0,0,.11.54l68,68a.1.1,0,0,0,0,0l.06,0a.48.48,0,0,0,.24.07h67.77a.41.41,0,0,0,.19,0,.5.5,0,0,0,.35-.14l0-.05h0l47.85-47.84a.5.5,0,0,0,.34-.47v-47.8h0a.48.48,0,0,0,0-.39A.51.51,0,0,0,245.27,145.52Z"/></svg>