<svg xmlns="http://www.w3.org/2000/svg" width="306" height="306" viewBox="0 0 306 306"><title>sydney</title><path d="M270,172.46h-47.5V124.92a.48.48,0,0,0-.31-.46.49.49,0,0,0-.54.1L207.75,138.5H140.21L86.35,84.65a.48.48,0,0,0-.54-.11.5.5,0,0,0-.31.46v67.79L52.35,119.65a.48.48,0,0,0-.54-.11.5.5,0,0,0-.31.46v66.79L37.31,172.6a.5.5,0,0,0-.85.36V221a.5.5,0,0,0,.5.5H84.83l.82.81a.47.47,0,0,0,.35.15.43.43,0,0,0,.19,0,.5.5,0,0,0,.31-.46v-.5H221.8a.51.51,0,0,0,.24.07.41.41,0,0,0,.19,0H270a.5.5,0,0,0,.5-.5V173A.5.5,0,0,0,270,172.46Z"/></svg>