<svg xmlns="http://www.w3.org/2000/svg" width="306" height="306" viewBox="0 0 306 306"><title>umbrella</title><path d="M57,86.08l.52.22L109.16,211a.51.51,0,0,0,.46.3.49.49,0,0,0,.46-.3l36.67-88.52,47.5,47.5L170.6,193.65a.5.5,0,0,0-.14.35v47.84L139.6,272.69a.5.5,0,0,0,.36.85H188a.5.5,0,0,0,.5-.5V225.21l19-19V273a.5.5,0,0,0,.31.46.43.43,0,0,0,.19,0,.47.47,0,0,0,.35-.15l34-34a.48.48,0,0,0,0-.7L208.73,205l10.67-10.67a.5.5,0,0,0,.14-.35V146.21l23.9-23.9a.49.49,0,0,0,.1-.54.48.48,0,0,0-.46-.31H205.71l43.61-18.06a.5.5,0,0,0,.27-.66l-18.4-44.42a.51.51,0,0,0-.27-.27.5.5,0,0,0-.38,0l-44.43,18.4a.51.51,0,0,0-.27.65l18.38,44.36H147l36.33-87.69a.51.51,0,0,0-.66-.66L57.91,84.77l-.14-.06a.53.53,0,0,0-.55.11.48.48,0,0,0-.13.3l-.11,0a.51.51,0,0,0-.3.46A.49.49,0,0,0,57,86.08Z"/></svg>